<svg xmlns="http://www.w3.org/2000/svg" width="600" height="250" viewBox="0 0 600 250" role="img" aria-label="Várias origens de dados passam por adapters, viram um modelo único e vão para o PostgreSQL">
<rect width="600" height="250" fill="#2a35ff"/>
<rect x="30" y="42" width="120" height="36" fill="none" stroke="#f5f6ff" stroke-width="2"/>
<path d="M62.7 65.1Q61.8 65.1 61.2 64.8Q60.6 64.5 60.2 63.8Q59.9 63.2 59.9 62.4V60.5Q59.9 59.6 60.2 59Q60.6 58.4 61.2 58.1Q61.8 57.7 62.7 57.7Q63.6 57.7 64.2 58.1Q64.8 58.4 65.2 59Q65.5 59.6 65.5 60.5V62.4Q65.5 63.2 65.2 63.8Q64.8 64.5 64.2 64.8Q63.6 65.1 62.7 65.1ZM62.7 64.1Q63.5 64.1 63.9 63.6Q64.3 63.2 64.3 62.4V60.5Q64.3 59.6 63.9 59.2Q63.5 58.8 62.7 58.8Q61.9 58.8 61.5 59.2Q61.1 59.6 61.1 60.5V62.4Q61.1 63.2 61.5 63.6Q61.9 64.1 62.7 64.1ZM68 65V57.9H69.2V59.2H69.5L69.1 60.1Q69.1 58.9 69.6 58.3Q70.1 57.7 71.1 57.7Q72.2 57.7 72.9 58.4Q73.5 59.1 73.5 60.3V60.8H72.4V60.5Q72.4 59.6 72 59.2Q71.6 58.7 70.8 58.7Q70.1 58.7 69.6 59.2Q69.2 59.6 69.2 60.5V65ZM75.5 65V63.9H78V58.9H75.8V57.9H79.2V63.9H81.6V65ZM78.5 56.6Q78.1 56.6 77.8 56.3Q77.6 56.1 77.6 55.7Q77.6 55.4 77.8 55.1Q78.1 54.9 78.5 54.9Q78.9 54.9 79.2 55.1Q79.4 55.4 79.4 55.7Q79.4 56.1 79.2 56.3Q78.9 56.6 78.5 56.6ZM84.3 67.3V66.3H86.6Q87.1 66.3 87.4 66Q87.6 65.8 87.6 65.3V64.3L87.6 63H87.4L87.6 62.9Q87.6 63.6 87.1 64.1Q86.6 64.5 85.7 64.5Q84.6 64.5 84 63.8Q83.3 63.1 83.3 61.9V60.4Q83.3 59.1 84 58.4Q84.6 57.7 85.7 57.7Q86.6 57.7 87.1 58.2Q87.6 58.6 87.6 59.4L87.4 59.2H87.6V57.9H88.8V65.3Q88.8 66.2 88.2 66.8Q87.6 67.3 86.6 67.3ZM86.1 63.5Q86.8 63.5 87.2 63.1Q87.6 62.6 87.6 61.8V60.5Q87.6 59.6 87.2 59.2Q86.8 58.7 86.1 58.7Q85.3 58.7 84.9 59.2Q84.5 59.6 84.5 60.5V61.8Q84.5 62.6 84.9 63.1Q85.3 63.5 86.1 63.5ZM93.9 65.1Q93.1 65.1 92.4 64.8Q91.8 64.5 91.4 63.8Q91.1 63.2 91.1 62.4V60.5Q91.1 59.6 91.4 59Q91.8 58.4 92.4 58.1Q93.1 57.7 93.9 57.7Q94.7 57.7 95.4 58.1Q96 58.4 96.4 59Q96.7 59.6 96.7 60.5V61.7H92.2V62.4Q92.2 63.2 92.7 63.7Q93.1 64.1 93.9 64.1Q94.6 64.1 95 63.9Q95.4 63.7 95.5 63.2H96.7Q96.6 64.1 95.8 64.6Q95 65.1 93.9 65.1ZM95.6 60.9V60.5Q95.6 59.6 95.1 59.2Q94.7 58.7 93.9 58.7Q93.1 58.7 92.7 59.2Q92.2 59.6 92.2 60.5V60.8H95.6ZM98.7 65V57.9H99.7V58.7H99.9L99.7 59Q99.7 58.4 100.1 58.1Q100.4 57.7 100.9 57.7Q101.5 57.7 101.8 58.2Q102.2 58.6 102.2 59.4L101.8 58.7H102.4L102.1 59Q102.1 58.4 102.4 58.1Q102.8 57.7 103.3 57.7Q104 57.7 104.4 58.2Q104.7 58.7 104.7 59.6V65H103.7V59.6Q103.7 59.1 103.5 58.9Q103.3 58.6 102.9 58.6Q102.6 58.6 102.4 58.9Q102.2 59.1 102.2 59.5V65H101.2V59.6Q101.2 59.1 101 58.9Q100.8 58.6 100.5 58.6Q100.1 58.6 99.9 58.9Q99.7 59.1 99.7 59.5V65ZM114.1 65 116.5 55.5H118.1L120.6 65H119.4L118.7 62.5H115.9L115.2 65ZM116.1 61.5H118.5L117.8 58.6Q117.6 57.7 117.4 57.2Q117.3 56.6 117.3 56.4Q117.3 56.6 117.2 57.2Q117 57.7 116.8 58.6Z" fill="#f5f6ff" />
<line x1="150" y1="60" x2="250" y2="125" stroke="#f5f6ff" stroke-opacity="0.5" stroke-width="1.5"/>
<rect x="30" y="107" width="120" height="36" fill="none" stroke="#f5f6ff" stroke-width="2"/>
<path d="M62.7 130.1Q61.8 130.1 61.2 129.8Q60.6 129.5 60.2 128.8Q59.9 128.2 59.9 127.4V125.5Q59.9 124.6 60.2 124Q60.6 123.4 61.2 123.1Q61.8 122.7 62.7 122.7Q63.6 122.7 64.2 123.1Q64.8 123.4 65.2 124Q65.5 124.6 65.5 125.5V127.4Q65.5 128.2 65.2 128.8Q64.8 129.5 64.2 129.8Q63.6 130.1 62.7 130.1ZM62.7 129.1Q63.5 129.1 63.9 128.6Q64.3 128.2 64.3 127.4V125.5Q64.3 124.6 63.9 124.2Q63.5 123.8 62.7 123.8Q61.9 123.8 61.5 124.2Q61.1 124.6 61.1 125.5V127.4Q61.1 128.2 61.5 128.6Q61.9 129.1 62.7 129.1ZM68 130V122.8H69.2V124.2H69.5L69.1 125.1Q69.1 123.9 69.6 123.3Q70.1 122.7 71.1 122.7Q72.2 122.7 72.9 123.4Q73.5 124.1 73.5 125.3V125.8H72.4V125.5Q72.4 124.6 72 124.2Q71.6 123.7 70.8 123.7Q70.1 123.7 69.6 124.2Q69.2 124.6 69.2 125.5V130ZM75.5 130V128.9H78V123.9H75.8V122.8H79.2V128.9H81.6V130ZM78.5 121.6Q78.1 121.6 77.8 121.3Q77.6 121.1 77.6 120.7Q77.6 120.4 77.8 120.1Q78.1 119.9 78.5 119.9Q78.9 119.9 79.2 120.1Q79.4 120.4 79.4 120.7Q79.4 121.1 79.2 121.3Q78.9 121.6 78.5 121.6ZM84.3 132.3V131.3H86.6Q87.1 131.3 87.4 131Q87.6 130.8 87.6 130.3V129.3L87.6 128.1H87.4L87.6 127.9Q87.6 128.6 87.1 129.1Q86.6 129.5 85.7 129.5Q84.6 129.5 84 128.8Q83.3 128.1 83.3 126.9V125.4Q83.3 124.2 84 123.4Q84.6 122.7 85.7 122.7Q86.6 122.7 87.1 123.2Q87.6 123.6 87.6 124.4L87.4 124.2H87.6V122.8H88.8V130.3Q88.8 131.2 88.2 131.8Q87.6 132.3 86.6 132.3ZM86.1 128.5Q86.8 128.5 87.2 128.1Q87.6 127.6 87.6 126.8V125.5Q87.6 124.6 87.2 124.2Q86.8 123.7 86.1 123.7Q85.3 123.7 84.9 124.2Q84.5 124.6 84.5 125.5V126.8Q84.5 127.6 84.9 128.1Q85.3 128.5 86.1 128.5ZM93.9 130.1Q93.1 130.1 92.4 129.8Q91.8 129.5 91.4 128.8Q91.1 128.2 91.1 127.4V125.5Q91.1 124.6 91.4 124Q91.8 123.4 92.4 123.1Q93.1 122.7 93.9 122.7Q94.7 122.7 95.4 123.1Q96 123.4 96.4 124Q96.7 124.6 96.7 125.5V126.7H92.2V127.4Q92.2 128.2 92.7 128.7Q93.1 129.1 93.9 129.1Q94.6 129.1 95 128.9Q95.4 128.7 95.5 128.2H96.7Q96.6 129.1 95.8 129.6Q95 130.1 93.9 130.1ZM95.6 125.9V125.5Q95.6 124.6 95.1 124.2Q94.7 123.7 93.9 123.7Q93.1 123.7 92.7 124.2Q92.2 124.6 92.2 125.5V125.8H95.6ZM98.7 130V122.8H99.7V123.7H99.9L99.7 124Q99.7 123.4 100.1 123.1Q100.4 122.7 100.9 122.7Q101.5 122.7 101.8 123.2Q102.2 123.6 102.2 124.4L101.8 123.7H102.4L102.1 124Q102.1 123.4 102.4 123.1Q102.8 122.7 103.3 122.7Q104 122.7 104.4 123.2Q104.7 123.7 104.7 124.6V130H103.7V124.6Q103.7 124.1 103.5 123.9Q103.3 123.6 102.9 123.6Q102.6 123.6 102.4 123.9Q102.2 124.1 102.2 124.5V130H101.2V124.6Q101.2 124.1 101 123.9Q100.8 123.6 100.5 123.6Q100.1 123.6 99.9 123.9Q99.7 124.1 99.7 124.5V130ZM114.6 130V120.5H117.3Q118.6 120.5 119.3 121.2Q120.1 121.8 120.1 123Q120.1 123.6 119.8 124.1Q119.5 124.6 119 124.8Q118.5 125.1 117.8 125.1V124.9Q118.6 124.9 119.1 125.2Q119.7 125.5 120 126Q120.3 126.6 120.3 127.4Q120.3 128.2 120 128.8Q119.6 129.4 119 129.7Q118.4 130 117.5 130ZM115.8 128.9H117.4Q118.2 128.9 118.7 128.5Q119.1 128.1 119.1 127.3Q119.1 126.5 118.7 126.1Q118.2 125.6 117.4 125.6H115.8ZM115.8 124.6H117.3Q118 124.6 118.5 124.2Q118.9 123.7 118.9 123.1Q118.9 122.4 118.5 122Q118.1 121.6 117.3 121.6H115.8Z" fill="#f5f6ff" />
<line x1="150" y1="125" x2="250" y2="125" stroke="#f5f6ff" stroke-opacity="0.5" stroke-width="1.5"/>
<rect x="30" y="172" width="120" height="36" fill="none" stroke="#f5f6ff" stroke-width="2"/>
<path d="M62.7 195.1Q61.8 195.1 61.2 194.8Q60.6 194.5 60.2 193.8Q59.9 193.2 59.9 192.4V190.5Q59.9 189.6 60.2 189Q60.6 188.4 61.2 188.1Q61.8 187.7 62.7 187.7Q63.6 187.7 64.2 188.1Q64.8 188.4 65.2 189Q65.5 189.6 65.5 190.5V192.4Q65.5 193.2 65.2 193.8Q64.8 194.5 64.2 194.8Q63.6 195.1 62.7 195.1ZM62.7 194.1Q63.5 194.1 63.9 193.6Q64.3 193.2 64.3 192.4V190.5Q64.3 189.6 63.9 189.2Q63.5 188.8 62.7 188.8Q61.9 188.8 61.5 189.2Q61.1 189.6 61.1 190.5V192.4Q61.1 193.2 61.5 193.6Q61.9 194.1 62.7 194.1ZM68 195V187.8H69.2V189.2H69.5L69.1 190.1Q69.1 188.9 69.6 188.3Q70.1 187.7 71.1 187.7Q72.2 187.7 72.9 188.4Q73.5 189.1 73.5 190.3V190.8H72.4V190.4Q72.4 189.6 72 189.2Q71.6 188.7 70.8 188.7Q70.1 188.7 69.6 189.2Q69.2 189.6 69.2 190.4V195ZM75.5 195V193.9H78V188.9H75.8V187.8H79.2V193.9H81.6V195ZM78.5 186.6Q78.1 186.6 77.8 186.3Q77.6 186.1 77.6 185.7Q77.6 185.4 77.8 185.1Q78.1 184.9 78.5 184.9Q78.9 184.9 79.2 185.1Q79.4 185.4 79.4 185.7Q79.4 186.1 79.2 186.3Q78.9 186.6 78.5 186.6ZM84.3 197.3V196.3H86.6Q87.1 196.3 87.4 196Q87.6 195.8 87.6 195.3V194.3L87.6 193.1H87.4L87.6 192.9Q87.6 193.6 87.1 194.1Q86.6 194.5 85.7 194.5Q84.6 194.5 84 193.8Q83.3 193.1 83.3 191.9V190.4Q83.3 189.2 84 188.4Q84.6 187.7 85.7 187.7Q86.6 187.7 87.1 188.2Q87.6 188.6 87.6 189.4L87.4 189.2H87.6V187.8H88.8V195.3Q88.8 196.2 88.2 196.8Q87.6 197.3 86.6 197.3ZM86.1 193.5Q86.8 193.5 87.2 193.1Q87.6 192.6 87.6 191.8V190.4Q87.6 189.6 87.2 189.2Q86.8 188.7 86.1 188.7Q85.3 188.7 84.9 189.2Q84.5 189.6 84.5 190.4V191.8Q84.5 192.6 84.9 193.1Q85.3 193.5 86.1 193.5ZM93.9 195.1Q93.1 195.1 92.4 194.8Q91.8 194.5 91.4 193.8Q91.1 193.2 91.1 192.4V190.4Q91.1 189.6 91.4 189Q91.8 188.4 92.4 188.1Q93.1 187.7 93.9 187.7Q94.7 187.7 95.4 188.1Q96 188.4 96.4 189Q96.7 189.6 96.7 190.4V191.7H92.2V192.4Q92.2 193.2 92.7 193.7Q93.1 194.1 93.9 194.1Q94.6 194.1 95 193.9Q95.4 193.7 95.5 193.2H96.7Q96.6 194.1 95.8 194.6Q95 195.1 93.9 195.1ZM95.6 190.9V190.4Q95.6 189.6 95.1 189.1Q94.7 188.7 93.9 188.7Q93.1 188.7 92.7 189.1Q92.2 189.6 92.2 190.4V190.8H95.6ZM98.7 195V187.8H99.7V188.7H99.9L99.7 189Q99.7 188.4 100.1 188.1Q100.4 187.7 100.9 187.7Q101.5 187.7 101.8 188.2Q102.2 188.6 102.2 189.4L101.8 188.7H102.4L102.1 189Q102.1 188.4 102.4 188.1Q102.8 187.7 103.3 187.7Q104 187.7 104.4 188.2Q104.7 188.7 104.7 189.6V195H103.7V189.6Q103.7 189.1 103.5 188.9Q103.3 188.6 102.9 188.6Q102.6 188.6 102.4 188.9Q102.2 189.1 102.2 189.5V195H101.2V189.6Q101.2 189.1 101 188.9Q100.8 188.6 100.5 188.6Q100.1 188.6 99.9 188.9Q99.7 189.1 99.7 189.5V195ZM117.4 195.1Q116.5 195.1 115.9 194.8Q115.2 194.5 114.9 193.9Q114.5 193.2 114.5 192.4V188.1Q114.5 187.3 114.9 186.6Q115.2 186 115.9 185.7Q116.5 185.4 117.4 185.4Q118.2 185.4 118.8 185.7Q119.5 186 119.8 186.7Q120.1 187.3 120.1 188.1H119Q119 187.3 118.5 186.9Q118.1 186.4 117.4 186.4Q116.6 186.4 116.1 186.9Q115.7 187.3 115.7 188.1V192.4Q115.7 193.2 116.1 193.6Q116.6 194.1 117.4 194.1Q118.1 194.1 118.5 193.6Q119 193.2 119 192.4H120.1Q120.1 193.2 119.8 193.8Q119.5 194.5 118.8 194.8Q118.2 195.1 117.4 195.1Z" fill="#f5f6ff" />
<line x1="150" y1="190" x2="250" y2="125" stroke="#f5f6ff" stroke-opacity="0.5" stroke-width="1.5"/>
<rect x="250" y="95" width="110" height="60" fill="#f5f6ff"/>
<path d="M265.5 118 269.1 104.3H273.3L277 118H273.6L273 115.5H269.3L268.8 118ZM269.9 112.9H272.5L271.7 109.5Q271.7 109.3 271.6 109Q271.6 108.8 271.5 108.4Q271.5 108.1 271.4 107.7Q271.3 107.4 271.3 107.1H271.1Q271.1 107.5 271 107.9Q270.9 108.4 270.8 108.8Q270.7 109.2 270.6 109.5ZM278.2 118V104.3H282.9Q284.8 104.3 285.9 105Q287.1 105.7 287.6 107.2Q288.1 108.7 288.1 111.1Q288.1 113.4 287.6 115Q287 116.5 285.9 117.3Q284.7 118 282.9 118ZM281.4 115.3H282.7Q283.3 115.3 283.7 115.1Q284.1 114.9 284.3 114.6Q284.6 114.2 284.7 113.5Q284.8 112.9 284.8 112V110.4Q284.8 109.5 284.7 108.9Q284.6 108.2 284.3 107.8Q284.1 107.4 283.7 107.2Q283.3 106.9 282.7 106.9H281.4ZM288.9 118 292.6 104.3H296.8L300.5 118H297.1L296.5 115.5H292.8L292.2 118ZM293.3 112.9H296L295.2 109.5Q295.2 109.3 295.1 109Q295 108.8 295 108.4Q294.9 108.1 294.8 107.7Q294.8 107.4 294.7 107.1H294.6Q294.5 107.5 294.4 107.9Q294.3 108.4 294.3 108.8Q294.2 109.2 294.1 109.5ZM301.7 118V104.3H307.4Q308.7 104.3 309.6 104.8Q310.4 105.4 310.8 106.4Q311.3 107.4 311.3 108.7Q311.3 110.1 310.8 111.2Q310.4 112.2 309.5 112.8Q308.6 113.4 307.3 113.4H304.9V118ZM304.9 110.8H306.6Q307.3 110.8 307.7 110.2Q308 109.7 308 108.8Q308 108.2 307.9 107.7Q307.7 107.3 307.4 107.1Q307.1 106.9 306.6 106.9H304.9ZM315.2 118V107H311.9V104.3H321.8V107H318.5V118ZM323.3 118V104.3H332.2V106.9H326.5V109.7H331.4V112.3H326.5V115.3H332.3V118ZM334 118V104.3H339.8Q341.3 104.3 342.2 104.8Q343.1 105.4 343.5 106.3Q343.9 107.3 343.9 108.4Q343.9 109.7 343.5 110.7Q343.1 111.7 342.3 112.3L344.4 118H340.9L339.3 113.1H337.3V118ZM337.3 110.6H339.3Q340 110.6 340.3 110.1Q340.7 109.5 340.7 108.7Q340.7 108.1 340.5 107.7Q340.4 107.3 340.1 107.1Q339.8 106.9 339.2 106.9H337.3Z" fill="#0a0c14" />
<path d="M273 142V133.9H274V135.1H274.2L274 135.3Q274 134.6 274.5 134.2Q274.9 133.8 275.7 133.8Q276.6 133.8 277.1 134.4Q277.7 135 277.7 136.1V137.9Q277.7 138.5 277.4 139.1Q277.2 139.6 276.7 139.8Q276.3 140.1 275.7 140.1Q274.9 140.1 274.5 139.7Q274 139.3 274 138.6L274.2 138.8H274L274 140.2V142ZM275.3 139.3Q276 139.3 276.3 138.9Q276.7 138.5 276.7 137.8V136.2Q276.7 135.4 276.3 135.1Q276 134.7 275.3 134.7Q274.7 134.7 274.4 135.1Q274 135.5 274 136.2V137.8Q274 138.5 274.4 138.9Q274.7 139.3 275.3 139.3ZM281.9 140.1Q281.2 140.1 280.6 139.8Q280.1 139.5 279.8 139Q279.5 138.5 279.5 137.8V136.2Q279.5 135.4 279.8 134.9Q280.1 134.4 280.6 134.1Q281.2 133.9 281.9 133.9Q282.6 133.9 283.2 134.1Q283.7 134.4 284 134.9Q284.3 135.4 284.3 136.2V137.8Q284.3 138.5 284 139Q283.7 139.5 283.2 139.8Q282.6 140.1 281.9 140.1ZM281.9 139.2Q282.5 139.2 282.9 138.8Q283.3 138.5 283.3 137.8V136.2Q283.3 135.5 282.9 135.1Q282.5 134.7 281.9 134.7Q281.3 134.7 280.9 135.1Q280.5 135.5 280.5 136.2V137.8Q280.5 138.5 280.9 138.8Q281.3 139.2 281.9 139.2ZM286.4 140V133.9H287.4V135.1H287.6L287.3 135.8Q287.3 134.8 287.7 134.3Q288.1 133.8 289 133.8Q289.9 133.8 290.5 134.4Q291.1 135 291.1 136.1V136.4H290.1V136.2Q290.1 135.4 289.7 135.1Q289.4 134.7 288.8 134.7Q288.1 134.7 287.8 135.1Q287.4 135.4 287.4 136.2V140ZM301.7 140.1Q301 140.1 300.4 139.8Q299.9 139.5 299.6 139Q299.3 138.5 299.3 137.8V136.2Q299.3 135.4 299.6 134.9Q299.9 134.4 300.4 134.1Q301 133.9 301.7 133.9Q302.4 133.9 303 134.1Q303.5 134.4 303.8 134.9Q304.1 135.4 304.1 136.2V137.8Q304.1 138.5 303.8 139Q303.5 139.5 303 139.8Q302.4 140.1 301.7 140.1ZM301.7 139.2Q302.3 139.2 302.7 138.8Q303.1 138.5 303.1 137.8V136.2Q303.1 135.5 302.7 135.1Q302.3 134.7 301.7 134.7Q301.1 134.7 300.7 135.1Q300.3 135.5 300.3 136.2V137.8Q300.3 138.5 300.7 138.8Q301.1 139.2 301.7 139.2ZM306.2 140V133.9H307.2V135.1H307.4L307.1 135.8Q307.1 134.8 307.5 134.3Q307.9 133.8 308.8 133.8Q309.7 133.8 310.3 134.4Q310.9 135 310.9 136.1V136.4H309.9V136.2Q309.9 135.4 309.5 135.1Q309.2 134.7 308.6 134.7Q307.9 134.7 307.6 135.1Q307.2 135.4 307.2 136.2V140ZM312.5 140V139.1H314.7V134.9H312.8V133.9H315.7V139.1H317.7V140ZM315.1 132.9Q314.7 132.9 314.5 132.7Q314.3 132.5 314.3 132.2Q314.3 131.8 314.5 131.6Q314.7 131.5 315.1 131.5Q315.4 131.5 315.6 131.6Q315.8 131.8 315.8 132.2Q315.8 132.5 315.6 132.7Q315.4 132.9 315.1 132.9ZM320 142V141.1H321.9Q322.4 141.1 322.6 140.9Q322.8 140.7 322.8 140.2V139.4L322.8 138.3H322.6L322.8 138.2Q322.8 138.8 322.4 139.2Q321.9 139.6 321.2 139.6Q320.2 139.6 319.7 139Q319.2 138.4 319.2 137.4V136.1Q319.2 135.1 319.7 134.4Q320.2 133.8 321.2 133.8Q321.9 133.8 322.4 134.2Q322.8 134.6 322.8 135.3L322.6 135.1H322.8V133.9H323.8V140.2Q323.8 141 323.3 141.5Q322.8 142 321.9 142ZM321.5 138.8Q322.1 138.8 322.4 138.4Q322.8 138 322.8 137.3V136.2Q322.8 135.5 322.4 135.1Q322.1 134.7 321.5 134.7Q320.9 134.7 320.5 135.1Q320.2 135.4 320.2 136.2V137.3Q320.2 138 320.5 138.4Q320.9 138.8 321.5 138.8ZM328.1 140.1Q327.4 140.1 326.9 139.8Q326.3 139.5 326 139Q325.7 138.5 325.7 137.8V136.2Q325.7 135.4 326 134.9Q326.3 134.4 326.9 134.1Q327.4 133.8 328.1 133.8Q328.8 133.8 329.3 134.1Q329.9 134.4 330.2 134.9Q330.5 135.4 330.5 136.2V137.2H326.7V137.8Q326.7 138.5 327.1 138.9Q327.4 139.3 328.1 139.3Q328.7 139.3 329 139.1Q329.4 138.9 329.5 138.5H330.4Q330.3 139.2 329.7 139.7Q329.1 140.1 328.1 140.1ZM329.5 136.6V136.2Q329.5 135.4 329.1 135.1Q328.8 134.7 328.1 134.7Q327.4 134.7 327.1 135.1Q326.7 135.4 326.7 136.2V136.5H329.6ZM332.1 140V133.9H333V134.7H333.2L333 134.9Q333 134.4 333.3 134.1Q333.6 133.8 334 133.8Q334.5 133.8 334.8 134.2Q335.1 134.6 335.1 135.3L334.8 134.7H335.3L335.1 134.9Q335.1 134.4 335.3 134.1Q335.6 133.8 336.1 133.8Q336.6 133.8 337 134.3Q337.3 134.7 337.3 135.4V140H336.4V135.4Q336.4 135 336.2 134.8Q336 134.6 335.7 134.6Q335.4 134.6 335.3 134.8Q335.1 135 335.1 135.4V140H334.3V135.4Q334.3 135 334.1 134.8Q334 134.6 333.7 134.6Q333.3 134.6 333.2 134.8Q333 135 333 135.4V140Z" fill="#0a0c14" fill-opacity="0.8"/>
<line x1="360" y1="125" x2="430" y2="125" stroke="#ffd60a" stroke-width="2"/>
<polygon points="430,119 442,125 430,131" fill="#ffd60a"/>
<rect x="442" y="85" width="128" height="80" fill="#ffd60a"/>
<path d="M459.8 118V104.3H465.5Q466.9 104.3 467.7 104.8Q468.6 105.4 469 106.4Q469.4 107.4 469.4 108.7Q469.4 110.1 469 111.2Q468.5 112.2 467.7 112.8Q466.8 113.4 465.5 113.4H463V118ZM463 110.8H464.8Q465.5 110.8 465.8 110.2Q466.2 109.7 466.2 108.8Q466.2 108.2 466 107.7Q465.9 107.3 465.6 107.1Q465.3 106.9 464.7 106.9H463ZM474.6 118.2Q473.2 118.2 472.2 117.7Q471.3 117.1 470.8 115.9Q470.3 114.6 470.3 112.7Q470.3 110.8 470.8 109.6Q471.3 108.4 472.2 107.8Q473.2 107.2 474.6 107.2Q476 107.2 477 107.8Q478 108.4 478.5 109.6Q479 110.8 479 112.7Q479 114.6 478.5 115.9Q478 117.1 477 117.7Q476 118.2 474.6 118.2ZM474.6 116Q475.1 116 475.4 115.7Q475.7 115.5 475.9 114.9Q476 114.4 476 113.5V112Q476 111.1 475.9 110.5Q475.7 110 475.4 109.7Q475.1 109.5 474.6 109.5Q474.1 109.5 473.8 109.7Q473.5 110 473.4 110.5Q473.2 111.1 473.2 112V113.5Q473.2 114.4 473.4 114.9Q473.5 115.5 473.8 115.7Q474.1 116 474.6 116ZM483.9 118.2Q482.9 118.2 482.2 118Q481.5 117.8 481 117.4Q480.5 117 480.3 116.4Q480.1 115.8 480.1 115.1Q480.1 115 480.1 114.9Q480.1 114.7 480.1 114.6H482.7Q482.7 114.7 482.7 114.8Q482.7 114.9 482.7 115Q482.7 115.4 482.9 115.6Q483 115.9 483.3 116Q483.6 116.2 483.9 116.2Q484.3 116.2 484.5 116.1Q484.8 116 485 115.7Q485.1 115.5 485.1 115.2Q485.1 114.7 484.8 114.4Q484.5 114.2 484 114Q483.6 113.8 483 113.7Q482.5 113.5 482 113.3Q481.5 113.1 481.1 112.7Q480.7 112.3 480.5 111.8Q480.2 111.3 480.2 110.4Q480.2 109.6 480.5 109Q480.8 108.4 481.4 108Q481.9 107.6 482.6 107.4Q483.3 107.2 484.1 107.2Q484.8 107.2 485.5 107.4Q486.1 107.6 486.6 107.9Q487.1 108.3 487.4 108.8Q487.7 109.3 487.7 110Q487.7 110.1 487.7 110.3Q487.7 110.5 487.6 110.6H485V110.2Q485 109.9 484.9 109.7Q484.8 109.5 484.5 109.4Q484.3 109.3 484 109.3Q483.8 109.3 483.6 109.3Q483.4 109.4 483.2 109.5Q483.1 109.6 483 109.8Q482.9 109.9 482.9 110.2Q482.9 110.5 483.2 110.7Q483.4 111 483.9 111.1Q484.3 111.3 484.8 111.5Q485.3 111.6 485.9 111.8Q486.4 112 486.9 112.4Q487.4 112.7 487.7 113.3Q488 113.8 488 114.7Q488 115.6 487.7 116.3Q487.3 117 486.8 117.4Q486.3 117.8 485.5 118Q484.8 118.2 483.9 118.2ZM492.2 118.2Q491.4 118.2 490.9 118Q490.3 117.7 490.1 117.1Q489.8 116.6 489.8 115.8V109.7H488.8V107.5H489.9L490.4 104.3H492.7V107.5H494.2V109.7H492.7V115Q492.7 115.5 492.8 115.7Q493 115.9 493.4 115.9H494.2V117.9Q493.8 118 493.5 118.1Q493.2 118.2 492.8 118.2Q492.5 118.2 492.2 118.2ZM497.3 122Q496.5 122 495.9 121.7Q495.3 121.3 495 120.7Q494.6 120.1 494.6 119.4Q494.6 118.6 495.1 118Q495.5 117.4 496.1 117.1Q495.6 116.8 495.4 116.3Q495.1 115.9 495.1 115.3Q495.1 114.7 495.5 114.1Q496 113.6 496.8 113.4Q496.1 112.9 495.8 112.2Q495.4 111.5 495.4 110.7Q495.4 109.6 495.9 108.8Q496.3 108 497.2 107.6Q498.1 107.2 499.3 107.2Q499.8 107.2 500.1 107.3Q500.5 107.3 500.8 107.4Q501.3 107.1 501.5 106.6Q501.8 106.1 501.8 105.6H504.1Q504.1 106.4 503.9 106.9Q503.6 107.5 503.2 107.8Q502.8 108.1 502.3 108.3Q502.7 108.7 503 109.3Q503.2 109.9 503.2 110.7Q503.2 111.7 502.8 112.5Q502.4 113.3 501.6 113.7Q500.8 114.1 499.7 114.1H498.7Q498.2 114.1 497.9 114.3Q497.7 114.4 497.7 114.8Q497.7 115.1 498 115.3Q498.2 115.5 498.6 115.5H501.3Q502.7 115.5 503.4 116.4Q504.1 117.2 504.1 118.5Q504.1 119.5 503.7 120.3Q503.3 121.1 502.5 121.6Q501.7 122 500.6 122ZM498.5 120.1H500.2Q500.5 120.1 500.8 120Q501 119.8 501.2 119.5Q501.3 119.3 501.3 118.9Q501.3 118.4 501 118.1Q500.7 117.8 500.3 117.8H498.5Q498 117.8 497.7 118.1Q497.4 118.4 497.4 118.9Q497.4 119.4 497.7 119.8Q498 120.1 498.5 120.1ZM499.3 112.3Q499.9 112.3 500.2 111.9Q500.4 111.5 500.4 110.7Q500.4 109.8 500.2 109.4Q499.9 109 499.3 109Q498.8 109 498.5 109.4Q498.2 109.8 498.2 110.7Q498.2 111.2 498.3 111.6Q498.4 111.9 498.7 112.1Q498.9 112.3 499.3 112.3ZM505.1 118V107.5H507.5L507.7 108.9H507.8Q508 108.4 508.2 108Q508.5 107.6 508.9 107.4Q509.3 107.2 509.7 107.2Q510 107.2 510.2 107.2Q510.4 107.3 510.5 107.4V110.2H509.6Q509.1 110.2 508.8 110.4Q508.5 110.6 508.3 110.9Q508.1 111.2 508 111.7Q508 112.2 508 112.9V118ZM515.4 118.2Q514 118.2 513 117.7Q512 117.1 511.6 115.9Q511.1 114.7 511.1 112.7Q511.1 110.7 511.6 109.5Q512.1 108.3 513.1 107.8Q514 107.2 515.5 107.2Q516.9 107.2 517.8 107.7Q518.7 108.2 519.2 109.4Q519.6 110.6 519.6 112.6V113.3H514.1Q514.1 114.2 514.2 114.8Q514.3 115.5 514.6 115.8Q514.9 116.1 515.4 116.1Q515.8 116.1 516 116Q516.3 115.9 516.4 115.6Q516.6 115.4 516.7 115.1Q516.7 114.7 516.7 114.2H519.6Q519.6 115.3 519.3 116Q519.1 116.8 518.5 117.3Q518 117.7 517.2 118Q516.5 118.2 515.4 118.2ZM514.1 111.7H516.6Q516.6 111.1 516.6 110.6Q516.5 110.2 516.4 109.9Q516.2 109.6 516 109.5Q515.8 109.4 515.4 109.4Q515 109.4 514.7 109.6Q514.4 109.9 514.2 110.4Q514.1 110.9 514.1 111.7ZM525.7 118.2Q524.7 118.2 523.8 118Q522.9 117.8 522.3 117.4Q521.6 116.9 521.2 116Q520.8 115.2 520.8 113.9Q520.8 113.9 520.8 113.7Q520.8 113.6 520.8 113.5H524Q523.9 113.6 523.9 113.7Q523.9 113.8 523.9 113.9Q523.9 114.6 524.1 114.9Q524.3 115.3 524.7 115.4Q525.1 115.6 525.6 115.6Q525.9 115.6 526.1 115.6Q526.4 115.5 526.6 115.4Q526.7 115.3 526.9 115.1Q527 115 527.1 114.7Q527.1 114.5 527.1 114.2Q527.1 113.8 526.9 113.4Q526.6 113.1 526.2 112.9Q525.8 112.7 525.2 112.5Q524.7 112.3 524.1 112.1Q523.5 111.9 523 111.6Q522.4 111.3 522 110.8Q521.6 110.4 521.3 109.7Q521 109.1 521 108.1Q521 107 521.4 106.2Q521.8 105.5 522.4 105Q523.1 104.5 523.9 104.2Q524.7 104 525.7 104Q526.6 104 527.4 104.2Q528.2 104.4 528.8 104.9Q529.5 105.4 529.8 106.1Q530.1 106.9 530.1 107.9V108.3H527.1V108.1Q527.1 107.6 526.9 107.3Q526.8 107 526.5 106.8Q526.2 106.6 525.7 106.6Q525.3 106.6 525 106.8Q524.6 106.9 524.5 107.2Q524.3 107.4 524.3 107.8Q524.3 108.3 524.6 108.6Q524.8 108.9 525.3 109.1Q525.7 109.4 526.3 109.6Q526.8 109.7 527.4 110Q528 110.2 528.5 110.5Q529 110.8 529.5 111.2Q529.9 111.6 530.2 112.3Q530.4 112.9 530.4 113.8Q530.4 115.3 529.8 116.3Q529.3 117.3 528.2 117.8Q527.1 118.2 525.7 118.2ZM539.2 120.6 537.5 118.2Q537.4 118.2 537.3 118.2Q537.2 118.2 537.2 118.2Q535.4 118.2 534.2 117.5Q532.9 116.7 532.3 115.1Q531.7 113.6 531.7 111.1Q531.7 108.7 532.3 107.1Q533 105.5 534.2 104.8Q535.5 104 537.3 104Q539.1 104 540.4 104.8Q541.6 105.5 542.3 107.1Q542.9 108.7 542.9 111.1Q542.9 113.6 542.3 115.1Q541.6 116.7 540.4 117.4L542.8 120.6ZM537.3 115.6Q537.9 115.6 538.3 115.3Q538.8 115.1 539.1 114.6Q539.3 114.2 539.5 113.5Q539.6 112.9 539.6 112V110.2Q539.6 109.4 539.5 108.7Q539.3 108.1 539.1 107.6Q538.8 107.2 538.3 106.9Q537.9 106.7 537.3 106.7Q536.7 106.7 536.2 106.9Q535.8 107.2 535.5 107.6Q535.2 108.1 535.1 108.7Q535 109.4 535 110.2V112Q535 112.9 535.1 113.5Q535.2 114.2 535.5 114.6Q535.8 115.1 536.2 115.3Q536.7 115.6 537.3 115.6ZM544.7 118V104.3H548V115.3H553V118Z" fill="#0a0c14" />
<path d="M465.5 142V137.5H463.8V136.6H465.5V135.5Q465.5 134.8 466 134.4Q466.4 134 467.2 134H469V134.9H467.2Q466.9 134.9 466.7 135Q466.5 135.2 466.5 135.5V136.6H469V137.5H466.5V142ZM473 142.1Q472.3 142.1 471.7 141.8Q471.2 141.5 470.9 141Q470.6 140.5 470.6 139.8V138.2Q470.6 137.4 470.9 136.9Q471.2 136.4 471.7 136.1Q472.3 135.9 473 135.9Q473.7 135.9 474.3 136.1Q474.8 136.4 475.1 136.9Q475.4 137.4 475.4 138.2V139.8Q475.4 140.5 475.1 141Q474.8 141.5 474.3 141.8Q473.7 142.1 473 142.1ZM473 141.2Q473.6 141.2 474 140.8Q474.4 140.5 474.4 139.8V138.2Q474.4 137.5 474 137.1Q473.6 136.7 473 136.7Q472.4 136.7 472 137.1Q471.6 137.5 471.6 138.2V139.8Q471.6 140.5 472 140.8Q472.4 141.2 473 141.2ZM477.5 142V135.9H478.5V137.1H478.7L478.4 137.8Q478.4 136.8 478.8 136.3Q479.2 135.8 480.1 135.8Q481 135.8 481.6 136.4Q482.2 137 482.2 138.1V138.4H481.2V138.2Q481.2 137.4 480.8 137.1Q480.5 136.7 479.9 136.7Q479.2 136.7 478.9 137.1Q478.5 137.4 478.5 138.2V142ZM483.6 142V135.9H484.5V136.7H484.7L484.5 136.9Q484.5 136.4 484.8 136.1Q485.1 135.8 485.5 135.8Q486 135.8 486.3 136.2Q486.6 136.6 486.6 137.3L486.3 136.7H486.8L486.6 136.9Q486.6 136.4 486.8 136.1Q487.1 135.8 487.6 135.8Q488.1 135.8 488.5 136.3Q488.8 136.7 488.8 137.4V142H487.9V137.4Q487.9 137 487.7 136.8Q487.5 136.6 487.2 136.6Q486.9 136.6 486.8 136.8Q486.6 137 486.6 137.4V142H485.8V137.4Q485.8 137 485.6 136.8Q485.5 136.6 485.2 136.6Q484.8 136.6 484.7 136.8Q484.5 137 484.5 137.4V142ZM492.3 142.1Q491.3 142.1 490.8 141.6Q490.2 141.1 490.2 140.3Q490.2 139.4 490.8 139Q491.3 138.5 492.2 138.5H494.1V137.9Q494.1 137.3 493.8 137Q493.4 136.7 492.8 136.7Q492.3 136.7 491.9 136.9Q491.6 137.2 491.5 137.5H490.5Q490.6 136.8 491.3 136.3Q491.9 135.8 492.9 135.8Q493.9 135.8 494.5 136.4Q495.1 136.9 495.1 137.8V142H494.1V140.8H494L494.1 140.7Q494.1 141.3 493.6 141.7Q493.1 142.1 492.3 142.1ZM492.5 141.3Q493.2 141.3 493.7 141Q494.1 140.6 494.1 140.1V139.2H492.3Q491.8 139.2 491.5 139.5Q491.2 139.8 491.2 140.2Q491.2 140.7 491.6 141Q491.9 141.3 492.5 141.3ZM500.1 142Q499.3 142 498.8 141.6Q498.4 141.2 498.4 140.4V136.9H496.7V135.9H498.4V134.2H499.4V135.9H501.8V136.9H499.4V140.4Q499.4 141.1 500.1 141.1H501.7V142ZM506 142.1Q505.3 142.1 504.7 141.8Q504.2 141.5 503.9 141Q503.6 140.5 503.6 139.8V138.2Q503.6 137.4 503.9 136.9Q504.2 136.4 504.7 136.1Q505.3 135.9 506 135.9Q506.7 135.9 507.3 136.1Q507.8 136.4 508.1 136.9Q508.4 137.4 508.4 138.2V139.8Q508.4 140.5 508.1 141Q507.8 141.5 507.3 141.8Q506.7 142.1 506 142.1ZM506 141.2Q506.6 141.2 507 140.8Q507.4 140.5 507.4 139.8V138.2Q507.4 137.5 507 137.1Q506.6 136.7 506 136.7Q505.4 136.7 505 137.1Q504.6 137.5 504.6 138.2V139.8Q504.6 140.5 505 140.8Q505.4 141.2 506 141.2ZM519.2 142.1Q518.1 142.1 517.5 141.5Q516.9 140.9 516.9 139.8V135.9H517.9V139.8Q517.9 140.5 518.2 140.9Q518.6 141.2 519.2 141.2Q519.8 141.2 520.2 140.9Q520.5 140.5 520.5 139.8V135.9H521.5V139.8Q521.5 140.9 520.9 141.5Q520.2 142.1 519.2 142.1ZM518.6 134.9 519.7 133.4H520.8L519.6 134.9ZM523.5 142V135.9H524.5V137.1H524.7L524.5 137.3Q524.5 136.6 524.9 136.2Q525.4 135.8 526.1 135.8Q527 135.8 527.6 136.4Q528.1 137 528.1 137.9V142H527.1V138Q527.1 137.4 526.8 137Q526.4 136.7 525.8 136.7Q525.2 136.7 524.9 137.1Q524.5 137.4 524.5 138.2V142ZM530 142V141.1H532.2V136.9H530.3V135.9H533.2V141.1H535.2V142ZM532.6 134.9Q532.2 134.9 532 134.7Q531.8 134.5 531.8 134.2Q531.8 133.8 532 133.6Q532.2 133.5 532.6 133.5Q532.9 133.5 533.1 133.6Q533.3 133.8 533.3 134.2Q533.3 134.5 533.1 134.7Q532.9 134.9 532.6 134.9ZM539 142.1Q538.3 142.1 537.8 141.8Q537.2 141.6 536.9 141Q536.6 140.5 536.6 139.8V138.2Q536.6 137.4 536.9 136.9Q537.2 136.4 537.8 136.1Q538.3 135.8 539 135.8Q540.1 135.8 540.7 136.4Q541.4 137 541.4 137.9H540.4Q540.4 137.3 540 137Q539.7 136.7 539 136.7Q538.4 136.7 538 137.1Q537.6 137.5 537.6 138.1V139.8Q537.6 140.5 538 140.9Q538.4 141.2 539 141.2Q539.7 141.2 540 140.9Q540.4 140.6 540.4 140H541.4Q541.4 141 540.7 141.5Q540.1 142.1 539 142.1ZM545.6 142.1Q544.9 142.1 544.3 141.8Q543.8 141.5 543.5 141Q543.2 140.5 543.2 139.8V138.2Q543.2 137.4 543.5 136.9Q543.8 136.4 544.3 136.1Q544.9 135.9 545.6 135.9Q546.3 135.9 546.9 136.1Q547.4 136.4 547.7 136.9Q548 137.4 548 138.2V139.8Q548 140.5 547.7 141Q547.4 141.5 546.9 141.8Q546.3 142.1 545.6 142.1ZM545.6 141.2Q546.2 141.2 546.6 140.8Q547 140.5 547 139.8V138.2Q547 137.5 546.6 137.1Q546.2 136.7 545.6 136.7Q545 136.7 544.6 137.1Q544.2 137.5 544.2 138.2V139.8Q544.2 140.5 544.6 140.8Q545 141.2 545.6 141.2Z" fill="#0a0c14" fill-opacity="0.8"/>
<rect x="-4" y="-4" width="8" height="8" fill="#ffd60a" opacity="0"><animateMotion dur="2.4s" begin="0.0s" repeatCount="indefinite" path="M150,60 L250,125 L442,125"/><animate attributeName="opacity" dur="2.4s" begin="0.0s" repeatCount="indefinite" values="0;1;1;0" keyTimes="0;0.05;0.92;1"/></rect>
<rect x="-4" y="-4" width="8" height="8" fill="#ffd60a" opacity="0"><animateMotion dur="2.4s" begin="0.8s" repeatCount="indefinite" path="M150,125 L250,125 L442,125"/><animate attributeName="opacity" dur="2.4s" begin="0.8s" repeatCount="indefinite" values="0;1;1;0" keyTimes="0;0.05;0.92;1"/></rect>
<rect x="-4" y="-4" width="8" height="8" fill="#ffd60a" opacity="0"><animateMotion dur="2.4s" begin="1.6s" repeatCount="indefinite" path="M150,190 L250,125 L442,125"/><animate attributeName="opacity" dur="2.4s" begin="1.6s" repeatCount="indefinite" values="0;1;1;0" keyTimes="0;0.05;0.92;1"/></rect>
</svg>